<svg width="32" height="32" viewBox="0 0 32 32" fill="none" xmlns="http://www.w3.org/2000/svg">
<path d="M32 15.998C32.0004 19.1626 31.0624 22.2562 29.3045 24.8877C27.5466 27.5191 25.0479 29.5702 22.1243 30.7815C19.2007 31.9928 15.9836 32.3099 12.8798 31.6928C9.77594 31.0757 6.92483 29.552 4.68699 27.3144C2.44915 25.0769 0.925116 22.2259 0.307591 19.1222C-0.309934 16.0184 0.00679923 12.8013 1.21774 9.87752C2.42869 6.95378 4.47945 4.45481 7.11068 2.69662C9.74191 0.938428 12.8354 -1.09754e-06 16 -1.39876e-06C20.2431 -1.80264e-06 24.3125 1.68542 27.313 4.68558C30.3135 7.68573 31.9995 11.7549 32 15.998V15.998Z" fill="white"/>
<path d="M23.2823 12.5831L23.5355 9.53897L21.1473 9.60875L23.2823 12.5831Z" fill="black"/>
<path d="M23.5375 18.149C22.9934 17.1229 22.174 16.269 21.1712 15.683C20.4243 15.2219 19.0288 14.653 16.9848 13.9766C14.9408 13.3001 13.6895 12.6828 13.231 12.1246C12.7526 11.5491 12.5186 10.8092 12.5791 10.0633C12.5945 9.61156 12.7066 9.16837 12.9077 8.76361C13.1089 8.35886 13.3945 8.00193 13.7453 7.71692C14.7264 6.86843 16.0013 6.43893 17.2958 6.5208C17.9881 6.56941 18.6615 6.76804 19.2694 7.10292C19.6521 9.08249 21.1632 8.93696 21.4623 8.89709L23.5056 8.89709C23.4079 8.618 22.6663 6.30551 20.8881 5.30875C19.7438 4.67879 18.4693 4.32195 17.1642 4.26613C15.9506 4.17588 14.7325 4.36831 13.6058 4.82831C12.5623 5.25075 11.6809 5.99526 11.09 6.95341C10.4973 7.90758 10.1615 8.99881 10.1151 10.1211C10.0558 11.1081 10.2421 12.0944 10.6574 12.9918C11.099 13.8966 11.7715 14.6688 12.607 15.2305C13.2928 15.7196 14.5055 16.2671 16.2452 16.8732C17.9849 17.4792 19.1066 17.9178 19.6103 18.1889C20.3957 18.5996 20.9506 19.0813 21.2749 19.6342C21.6052 20.2103 21.7572 20.8715 21.7114 21.534C21.6842 22.2182 21.4644 22.8809 21.0775 23.4458C21.0297 23.5176 20.9778 23.5854 20.926 23.6452C20.9592 23.4624 20.9685 23.2761 20.9539 23.091C20.7864 21.0875 17.7643 19.702 14.1899 19.999C13.597 20.0471 13.009 20.1431 12.4316 20.2861C11.7837 19.6183 9.9397 18.171 6.10616 18.1052L8.54623 20.9599L5.58785 20.2801C5.58785 20.2801 7.81061 22.7541 9.83204 23.8066C10.4028 24.99 11.3135 25.9762 12.4476 26.6394C13.5945 27.3039 15.0358 27.6913 16.7715 27.8016C18.0544 27.9009 19.3415 27.6718 20.5113 27.1358C21.6043 26.6355 22.5232 25.8206 23.1508 24.7954C23.7796 23.7813 24.1372 22.6225 24.1894 21.4304C24.262 20.2984 24.0372 19.1672 23.5375 18.149V18.149ZM22.0125 7.384C22.123 7.384 22.231 7.41679 22.3228 7.47822C22.4146 7.53964 22.4862 7.62694 22.5283 7.72905C22.5705 7.83116 22.5815 7.94348 22.5598 8.05181C22.5381 8.16015 22.4847 8.25961 22.4065 8.33759C22.3282 8.41558 22.2285 8.46858 22.1201 8.48989C22.0117 8.51121 21.8994 8.49986 21.7975 8.45731C21.6955 8.41476 21.6085 8.34291 21.5474 8.25085C21.4863 8.1588 21.4539 8.05067 21.4543 7.94019C21.4537 7.86665 21.4678 7.79374 21.4956 7.72567C21.5235 7.65759 21.5646 7.59571 21.6165 7.54362C21.6684 7.49152 21.7301 7.45024 21.7981 7.42216C21.8661 7.39408 21.9389 7.37975 22.0125 7.38001L22.0125 7.384Z" fill="black"/>
</svg>
