<svg width="120" height="120" viewBox="0 0 120 120" fill="none" xmlns="http://www.w3.org/2000/svg">
<path fill-rule="evenodd" clip-rule="evenodd" d="M109.892 93.3288C116.484 83.4608 120.001 71.8597 120 59.9925C119.998 44.0808 113.676 28.8215 102.424 17.5709C91.1718 6.32034 75.9117 -6.63641e-06 60 -5.24537e-06C48.1328 -4.2079e-06 36.5321 3.5191 26.665 10.1123C16.7979 16.7055 9.10757 26.0767 4.56653 37.0407C0.0254971 48.0047 -1.16225 60.0691 1.15347 71.7082C3.46919 83.3473 9.1843 94.0382 17.5762 102.429C25.9681 110.82 36.6598 116.534 48.2991 118.848C59.9385 121.162 72.0027 119.973 82.9662 115.431C93.9296 110.888 103.3 103.197 109.892 93.3288ZM88.2656 68.0588C86.2254 64.211 83.1523 61.0086 79.392 58.8114C76.5911 57.082 71.3581 54.9489 63.693 52.4122C56.0279 49.8754 51.3357 47.5605 49.6162 45.4673C47.8224 43.3092 46.9449 40.5345 47.1717 37.7374C47.2293 36.0434 47.6496 34.3814 48.404 32.8636C49.1584 31.3457 50.2294 30.0072 51.5449 28.9384C55.2239 25.7566 60.0049 24.146 64.8592 24.453C67.4553 24.6353 69.9807 25.3802 72.2602 26.636C73.6955 34.0593 79.3621 33.5136 80.4835 33.3641L88.1461 33.3641C88.1334 33.328 88.118 33.2829 88.0995 33.2293L88.0986 33.2266C87.5802 31.7162 84.7653 23.5148 78.3305 19.9078C74.0392 17.5455 69.2598 16.2073 64.3658 15.998C59.8146 15.6596 55.2469 16.3812 51.0217 18.1062C47.1087 19.6903 43.8035 22.4822 41.5873 26.0753C39.3648 29.6534 38.1055 33.7455 37.9317 37.9541C37.7092 41.6554 38.4078 45.3541 39.9651 48.7192C41.6211 52.1121 44.1431 55.008 47.2764 57.1144C49.848 58.9484 54.3957 61.0017 60.9195 63.2744C67.4433 65.547 71.6496 67.1916 73.5385 68.2083C76.4839 69.7483 78.5647 71.555 79.7807 73.6282C81.0195 75.7886 81.5893 78.2681 81.4179 80.7525C81.3156 83.3183 80.4916 85.8032 79.0406 87.9218C78.8612 88.1909 78.6668 88.4451 78.4725 88.6693C78.5968 87.984 78.632 87.2854 78.5771 86.5911C77.9492 79.078 66.616 73.8824 53.2121 74.9963C50.9888 75.1765 48.7837 75.5365 46.6185 76.0728C44.1889 73.5684 37.2739 68.1411 22.8981 67.8944L32.0483 78.5995L20.9544 76.0504C20.9544 76.0504 29.2898 85.3277 36.8701 89.2749C39.0105 93.7123 42.4255 97.4109 46.6784 99.8979C50.9794 102.39 56.3843 103.843 62.8931 104.256C67.7041 104.628 72.5307 103.769 76.9176 101.759C81.0161 99.8831 84.4622 96.8274 86.8154 92.9828C89.1734 89.1797 90.5146 84.8344 90.7102 80.3638C90.9824 76.1192 90.1396 71.8771 88.2656 68.0588ZM82.5468 27.69C82.9611 27.69 83.3661 27.813 83.7105 28.0433C84.0549 28.2736 84.3231 28.601 84.4813 28.9839C84.6395 29.3668 84.6805 29.7881 84.5991 30.1943C84.5177 30.6005 84.3177 30.9735 84.0242 31.266C83.7307 31.5584 83.357 31.7572 82.9505 31.8371C82.544 31.917 82.1229 31.8745 81.7405 31.7149C81.3582 31.5553 81.0318 31.2859 80.8027 30.9407C80.5736 30.5955 80.4521 30.19 80.4535 29.7757C80.4516 29.4999 80.5043 29.2265 80.6087 28.9712C80.7131 28.716 80.8671 28.4839 81.0618 28.2886C81.2564 28.0932 81.4879 27.9384 81.7428 27.8331C81.9977 27.7278 82.271 27.674 82.5468 27.675L82.5468 27.69ZM87.3088 47.1866L88.2582 35.7711L79.3024 36.0328L87.3088 47.1866Z" fill="black"/>
</svg>