<svg width="107" height="29" viewBox="0 0 107 29" fill="none" xmlns="http://www.w3.org/2000/svg">
<path d="M41.849 20.3999C40.9825 20.3999 40.1494 20.2611 39.3495 19.9833C38.5608 19.7056 37.9498 19.339 37.5165 18.8836L37.9998 17.9337C38.4219 18.3559 38.9829 18.7003 39.6828 18.9669C40.3827 19.2224 41.1047 19.3501 41.849 19.3501C42.8933 19.3501 43.6765 19.1613 44.1986 18.7836C44.7207 18.3948 44.9818 17.8948 44.9818 17.2839C44.9818 16.8173 44.8374 16.4451 44.5485 16.1674C44.2708 15.8897 43.9264 15.6786 43.5154 15.5342C43.1044 15.3787 42.5323 15.212 41.7991 15.0343C40.9214 14.8121 40.2216 14.601 39.6995 14.4011C39.1773 14.19 38.7274 13.8734 38.3497 13.4513C37.9831 13.0291 37.7998 12.457 37.7998 11.7349C37.7998 11.1461 37.9553 10.6129 38.2664 10.1352C38.5774 9.64642 39.0551 9.25761 39.6995 8.96877C40.3438 8.67994 41.1436 8.53552 42.099 8.53552C42.7655 8.53552 43.4154 8.62995 44.0486 8.8188C44.693 8.99655 45.2484 9.2465 45.715 9.56866L45.2984 10.5518C44.8096 10.2296 44.2875 9.9908 43.732 9.83527C43.1766 9.66864 42.6322 9.58532 42.099 9.58532C41.077 9.58532 40.3049 9.78528 39.7828 10.1852C39.2718 10.574 39.0163 11.0795 39.0163 11.7016C39.0163 12.1682 39.1551 12.5459 39.4328 12.8347C39.7217 13.1124 40.0772 13.3291 40.4993 13.4846C40.9326 13.629 41.5102 13.7901 42.2323 13.9678C43.0877 14.1789 43.7765 14.39 44.2986 14.601C44.8318 14.801 45.2817 15.112 45.6483 15.5342C46.0149 15.9452 46.1982 16.5062 46.1982 17.2172C46.1982 17.806 46.0371 18.3448 45.715 18.8336C45.4039 19.3112 44.9207 19.6945 44.2653 19.9833C43.6098 20.2611 42.8044 20.3999 41.849 20.3999Z" fill="white"/>
<path d="M64.8986 8.6355L60.966 20.2999H59.6662L56.2502 10.3518L52.8175 20.2999H51.5344L47.6019 8.6355H48.8683L52.2343 18.6669L55.717 8.6355H56.8668L60.2994 18.7169L63.7155 8.6355H64.8986Z" fill="white"/>
<path d="M74.1167 17.1839H67.618L66.2182 20.2999H64.9351L70.2675 8.6355H71.4839L76.8162 20.2999H75.5165L74.1167 17.1839ZM73.6668 16.1841L70.8673 9.91859L68.0679 16.1841H73.6668Z" fill="white"/>
<path d="M88.4939 8.6355V20.2999H87.4775L79.9789 10.8351V20.2999H78.7458V8.6355H79.7623L87.2775 18.1004V8.6355H88.4939Z" fill="white"/>
<path d="M92.3011 8.6355H93.5342V20.2999H92.3011V8.6355Z" fill="white"/>
<path d="M104.645 20.2999L100.879 15.1676L97.1295 20.2999H95.7131L100.146 14.3011L95.9964 8.6355H97.4128L100.929 13.4013L104.428 8.6355H105.761L101.629 14.2678L106.078 20.2999H104.645Z" fill="white"/>
<path d="M29 14.4982C29.0004 17.3661 28.1503 20.1697 26.5572 22.5545C24.9641 24.9392 22.6996 26.798 20.0502 27.8957C17.4007 28.9935 14.4851 29.2809 11.6723 28.7216C8.85945 28.1623 6.27562 26.7815 4.24758 24.7537C2.21954 22.7259 0.838385 20.1422 0.278753 17.3295C-0.280879 14.5167 0.00616079 11.6011 1.10358 8.9515C2.201 6.30187 4.0595 4.03717 6.44405 2.44381C8.8286 0.850451 11.6321 2.22606e-08 14.5 0C18.3453 -2.98473e-08 22.0332 1.52742 24.7524 4.2463C27.4716 6.96519 28.9995 10.6529 29 14.4982V14.4982Z" fill="white"/>
<path d="M21.0996 11.4034L21.3291 8.64465L19.1647 8.70789L21.0996 11.4034Z" fill="black"/>
<path d="M21.3309 16.4476C20.8378 15.5177 20.0952 14.7438 19.1864 14.2128C18.5095 13.7948 17.2449 13.2793 15.3925 12.6663C13.5401 12.0532 12.4061 11.4938 11.9906 10.9879C11.5571 10.4664 11.345 9.79584 11.3998 9.11988C11.4138 8.71049 11.5153 8.30885 11.6976 7.94204C11.88 7.57523 12.1388 7.25177 12.4567 6.99347C13.3458 6.22453 14.5012 5.83529 15.6743 5.90949C16.3017 5.95354 16.912 6.13356 17.4629 6.43704C17.8098 8.23102 19.1792 8.09914 19.4502 8.063H21.302C21.2134 7.81008 20.5414 5.71439 18.9299 4.81107C17.8928 4.24017 16.7378 3.91678 15.5551 3.8662C14.4552 3.78441 13.3513 3.9588 12.3302 4.37567C11.3846 4.75851 10.5858 5.43322 10.0503 6.30154C9.51318 7.16626 9.20884 8.15518 9.16684 9.17226C9.11306 10.0667 9.2819 10.9606 9.65824 11.7738C10.0584 12.5938 10.6679 13.2936 11.4251 13.8027C12.0466 14.2459 13.1456 14.7421 14.7222 15.2913C16.2988 15.8405 17.3153 16.238 17.7718 16.4837C18.4836 16.8559 18.9865 17.2925 19.2803 17.7935C19.5797 18.3156 19.7174 18.9148 19.676 19.5152C19.6513 20.1353 19.4521 20.7358 19.1015 21.2478C19.0581 21.3128 19.0112 21.3742 18.9642 21.4284C18.9942 21.2628 19.0027 21.094 18.9895 20.9262C18.8377 19.1105 16.0989 17.8549 12.8596 18.1241C12.3223 18.1677 11.7894 18.2547 11.2661 18.3843C10.679 17.7791 9.00786 16.4674 5.53371 16.4078L7.74503 18.9949L5.064 18.3788C5.064 18.3788 7.07837 20.6209 8.91029 21.5748C9.42756 22.6472 10.2528 23.541 11.2806 24.142C12.32 24.7442 13.6262 25.0953 15.1992 25.1953C16.3618 25.2852 17.5283 25.0776 18.5884 24.5918C19.5789 24.1384 20.4117 23.4 20.9804 22.4709C21.5503 21.5518 21.8744 20.5017 21.9216 19.4213C21.9874 18.3955 21.7838 17.3703 21.3309 16.4476V16.4476ZM19.9488 6.69177C20.0489 6.69177 20.1468 6.72148 20.23 6.77715C20.3133 6.83281 20.3781 6.91193 20.4163 7.00447C20.4546 7.097 20.4645 7.1988 20.4448 7.29697C20.4251 7.39515 20.3768 7.48529 20.3059 7.55596C20.2349 7.62663 20.1446 7.67467 20.0464 7.69398C19.9481 7.7133 19.8464 7.70302 19.754 7.66445C19.6616 7.62589 19.5827 7.56077 19.5273 7.47735C19.472 7.39392 19.4426 7.29594 19.4429 7.19581C19.4425 7.12916 19.4552 7.06309 19.4804 7.0014C19.5057 6.93971 19.5429 6.88363 19.5899 6.83642C19.637 6.7892 19.6929 6.7518 19.7545 6.72635C19.8161 6.7009 19.8822 6.68791 19.9488 6.68815V6.69177Z" fill="black"/>
</svg>
