<svg width="120" height="120" viewBox="0 0 120 120" fill="none" xmlns="http://www.w3.org/2000/svg">
<path d="M120 59.985C120.003 71.8526 116.487 83.4544 109.895 93.3233C103.304 103.192 93.9347 110.885 82.9714 115.428C72.0081 119.972 59.9436 121.162 48.3038 118.849C36.664 116.536 25.9715 110.822 17.5788 102.432C9.1862 94.0412 3.47034 83.3502 1.15402 71.7109C-1.16231 60.0716 0.0249906 48.0069 4.56581 37.0424C9.10663 26.078 16.7969 16.7064 26.6642 10.1129C36.5315 3.51931 48.1325 -3.37354e-06 60 -4.77949e-06C67.8783 -0.000987253 75.6797 1.54979 82.9587 4.56379C90.2377 7.57779 96.8518 11.996 102.423 17.5661C107.995 23.1362 112.415 29.7492 115.43 37.0275C118.446 44.3057 119.999 52.1067 120 59.985Z" fill="black"/>
<path d="M87.3088 47.179L88.2582 35.7636L79.3023 36.0178L87.3088 47.179Z" fill="white"/>
<path d="M88.2656 68.0289C86.2258 64.1788 83.1529 60.9738 79.3919 58.774C76.591 57.0446 71.3581 54.9115 63.693 52.3748C56.0279 49.838 51.3357 47.523 49.6162 45.4298C47.8221 43.2748 46.9444 40.5023 47.1717 37.7074C47.2292 36.0124 47.6493 34.3493 48.4037 32.8302C49.1581 31.3111 50.2292 29.9714 51.5449 28.9011C55.2239 25.7192 60.0049 24.1086 64.8592 24.4156C67.4553 24.5979 69.9807 25.3428 72.2602 26.5986C73.6955 34.0219 79.3621 33.4762 80.4835 33.2893L88.1461 33.2893C87.7797 32.2427 84.9988 23.5709 78.3304 19.833C74.0387 17.473 69.2593 16.1375 64.3658 15.9307C59.8143 15.5848 55.2449 16.3067 51.0217 18.0389C47.1073 19.6208 43.8015 22.4132 41.5873 26.008C39.3639 29.5857 38.1045 33.6781 37.9317 37.8869C37.7104 41.5856 38.409 45.2816 39.9651 48.6444C41.6209 52.0395 44.1428 54.9378 47.2763 57.0471C49.848 58.8712 54.3957 60.9245 60.9195 63.2071C67.4433 65.4896 71.6496 67.1318 73.5385 68.1336C76.4839 69.6736 78.5646 71.4802 79.7807 73.5535C81.0192 75.7167 81.589 78.1984 81.4179 80.6853C81.3132 83.2506 80.4894 85.7348 79.0406 87.8545C78.8612 88.1161 78.6668 88.3703 78.4724 88.602C78.597 87.9192 78.6322 87.2231 78.5771 86.5313C77.9492 79.0107 66.616 73.8226 53.2121 74.929C50.9897 75.1165 48.7851 75.4764 46.6185 76.0055C44.1889 73.5086 37.2739 68.0738 22.8906 67.8345L32.0483 78.5397L20.902 75.998C20.902 75.998 29.2375 85.2679 36.8178 89.2225C38.9605 93.6584 42.3748 97.3564 46.626 99.8455C50.927 102.337 56.332 103.79 62.8408 104.204C67.6525 104.574 72.479 103.712 76.8652 101.699C80.9781 99.8494 84.4434 96.8111 86.8154 92.9753C89.1725 89.169 90.5135 84.8216 90.7102 80.3489C90.9861 76.0991 90.1432 71.8513 88.2656 68.0289V68.0289ZM82.5468 27.6601C82.9608 27.6601 83.3654 27.7829 83.7096 28.0129C84.0539 28.2429 84.3221 28.5698 84.4806 28.9523C84.639 29.3347 84.6805 29.7556 84.5997 30.1617C84.519 30.5677 84.3196 30.9407 84.0268 31.2334C83.7341 31.5261 83.3612 31.7255 82.9551 31.8063C82.5491 31.887 82.1282 31.8456 81.7457 31.6872C81.3632 31.5287 81.0363 31.2604 80.8063 30.9162C80.5763 30.572 80.4535 30.1673 80.4535 29.7533C80.4535 29.1981 80.674 28.6657 81.0666 28.2732C81.4591 27.8806 81.9916 27.6601 82.5468 27.6601Z" fill="white"/>
</svg>